<svg xmlns="http://www.w3.org/2000/svg" height="auto" style="background-color:#000" viewBox="0 0 1280 1280"><defs/><g clip-path="url(#clip0)"><path d="M0 0h1280v1280H0z"/><path fill="#004476" d="M1340-130L743 615l557 535h2L745 615l597-745h-2z"/><path fill="#010E18" d="M23 207l689 689-384 384H0V230l23-23zm699 35l48-48 48 48-48 48-48-48z"/><path fill="#004476" d="M743 440l24-24 24 24-24 24-24-24zm284-190.2h4v-3.96h-4v3.96zm-72-55.52h4v-3.97h-4v3.97zm0 59.49h4v-3.97h-4v3.97zm0-31.73h4v-3.97h-4v3.97zm0 51.56h4v-3.97h-4v3.97zm36-39.66h4v-3.97h-4v3.97zm72 0h4v-3.97h-4v3.97zm36-23.8h4v-3.96h-4v3.96zm-72 99.15h4v-3.97h-4v3.97zm-36-15.86h4v-3.97h-4v3.97zm0 154.67h4v-3.97h-4v3.96zm72-154.67h4v-3.97h-4v3.97zm36 7.93h4v-3.97h-4v3.97zm-72-31.73h4v-3.96h-4v3.96zm-36-15.86h4v-3.97h-4v3.97zm72 0h4v-3.97h-4v3.97zm36-23.8h4v-3.96h-4v3.96zm-72 99.15h4v-3.97h-4v3.97zm-36 15.86h4v-3.97h-4v3.97zm0 138.8h4v-3.96h-4v3.96zm0 35.7h4v-3.97h-4v3.97zm0 55.52h4v-39.66h-4V575zm72-237.95h4v-3.97h-4v3.97zm0 51.55h4v-3.96h-4v3.97zm-36-99.14h4v-3.97h-4v3.97zm-36-15.86h4v-3.97h-4v3.97zm0 146.73h4v-3.96h-4v3.96zm72-146.73h4v-3.97h-4v3.97zm36-7.93h4v-3.97h-4v3.97zm-72 211.17h4V345.97h-4v130.87zm-36-92.2h4v-23.8h-4v23.8zm72 151.69h4V405.46h-4v130.87z"/><path fill="#004476" fill-rule="evenodd" d="M1029 27l-74 74 74 74 74-74-74-74zm0 6l-68 68 68 68 68-68-68-68z" clip-rule="evenodd"/><path fill="#004476" d="M144 423.8h4v-15.95h-4v15.96zm-72-63.81h4V356h-4v3.99zm36 63.81h4v-35.89h-4v35.9zm72-31.9h4v-3.99h-4v3.99zm36-23.93h4v-4h-4v4zm-72 139.6h4v-3.99h-4v4zm-36 99.72h4v-3.99h-4v3.99zm72-155.56h4v-3.99h-4v3.99zm36 7.97h4v-3.98h-4v3.99zM72 487.63h4v-37.9h-4v37.9zm36 15.95h4v-3.99h-4v4zm0 175.51h4v-4h-4v4zm0 55.84h4v-39.89h-4v39.89zm72-239.33h4v-3.98h-4v3.99zm-72 83.77h4v-12h-4v12zM216 423.8h4v-3.98h-4v3.99zM144 784h4V616.26h-4V784z"/><path fill="#004476" d="M72 487.63h4V456.7h-4v30.92zm108 208.41h4V564.4h-4v131.63zM78 288l68-68 68 68-68 68-68-68zm547 457h4v-12h-4v12zm56 16h4v-32h-4v32zm-28 99h4V740h-4v120zm-28-103h4v-4h-4v4zm56 24h4v-4h-4v4zm-28 96h4v-4h-4v4zm-28-100h4v-4h-4v4zm56 28h4v-4h-4v4zm-28 96h4v-4h-4v4zm28-80h4v-4h-4v4z"/><path fill="#004476" fill-rule="evenodd" d="M619 677l36-36 36 36-36 36-36-36zm36-32l-32 32 32 32 32-32-32-32z" clip-rule="evenodd"/><path fill="#158CE3" fill-rule="evenodd" d="M998 917l40-40 40 40-40 40-40-40zm40-36l-36 36 36 36 36-36-36-36z" clip-rule="evenodd"/><path fill="#158CE3" d="M371 255h4v-12h-4v12zm56 16h4v-32h-4v32zm-28 99h4V250h-4v120zm-28-103h4v-4h-4v4zm56 24h4v-4h-4v4zm-28 96h4v-4h-4v4zm-28-100h4v-4h-4v4zm56 28h4v-4h-4v4zm-28 96h4v-4h-4v4zm28-80h4v-4h-4v4z"/><path fill="#158CE3" fill-rule="evenodd" d="M365 187l36-36 36 36-36 36-36-36zm36-32l-32 32 32 32 32-32-32-32z" clip-rule="evenodd"/></g><defs><clipPath id="clip0"><path fill="#fff" d="M0 0h1280v1280H0z"/></clipPath></defs></svg>